<?xml version="1.0" encoding="UTF-8"?>
<svg xmlns="http://www.w3.org/2000/svg" xmlns:xlink="http://www.w3.org/1999/xlink" width="48.642pt" height="111.472pt" viewBox="0 0 48.642 111.472" version="1.1">
<defs>
<clipPath id="clip1">
  <path d="M 0 0 L 48.640625 0 L 48.640625 111.472656 L 0 111.472656 Z M 0 0 "/>
</clipPath>
</defs>
<g id="surface1">
<g clip-path="url(#clip1)" clip-rule="nonzero">
<path style=" stroke:none;fill-rule:nonzero;fill:rgb(100%,100%,100%);fill-opacity:1;" d="M 0 111.472656 L 0 0 L 48.640625 0 L 48.640625 111.472656 Z M 0 111.472656 "/>
</g>
<path style="fill:none;stroke-width:1.10489;stroke-linecap:butt;stroke-linejoin:miter;stroke:rgb(29.019165%,33.724976%,34.902954%);stroke-opacity:1;stroke-miterlimit:10;" d="M -0.0006875 0.0014375 L -0.0006875 -31.354031 " transform="matrix(1,0,0,-1,24.321,18.978)"/>
<path style="fill-rule:nonzero;fill:rgb(29.019165%,33.724976%,34.902954%);fill-opacity:1;stroke-width:1.10489;stroke-linecap:butt;stroke-linejoin:miter;stroke:rgb(29.019165%,33.724976%,34.902954%);stroke-opacity:1;stroke-miterlimit:10;" d="M 3.640673 -0.0006875 L 0.550829 0.975875 L 0.550829 -0.97725 Z M 3.640673 -0.0006875 " transform="matrix(0,1,1,0,24.321,50.05464)"/>
<path style="fill:none;stroke-width:0.73659;stroke-linecap:butt;stroke-linejoin:miter;stroke:rgb(29.019165%,33.724976%,34.902954%);stroke-opacity:1;stroke-miterlimit:10;" d="M -5.528031 -73.701688 L -4.875688 -73.049344 M -3.684281 -73.701688 L -3.031938 -73.049344 M -1.840531 -73.701688 L -1.192094 -73.049344 M -0.0006875 -73.701688 L 0.651656 -73.049344 M 1.843062 -73.701688 L 2.495406 -73.049344 M 3.686812 -73.701688 L 4.33525 -73.049344 M 5.526656 -73.701688 L 4.878219 -73.049344 M 5.526656 -71.857938 L 4.878219 -71.205594 M 5.526656 -70.014188 L 4.878219 -69.36575 M 5.526656 -68.174344 L 4.878219 -67.522 M 5.526656 -66.330594 L 4.878219 -65.67825 M 5.526656 -64.486844 L 4.878219 -63.838406 M 5.526656 -62.647 L 4.878219 -61.994656 M 5.526656 -60.80325 L 4.878219 -60.150906 M 5.526656 -58.9595 L 4.878219 -58.307156 M 5.526656 -57.11575 L 4.878219 -56.467313 M 5.526656 -55.275906 L 4.878219 -54.623563 M 5.526656 -53.432156 L 4.878219 -52.779813 M 5.526656 -51.588406 L 4.878219 -50.939969 M 5.526656 -49.748563 L 4.878219 -49.096219 M 5.526656 -47.904813 L 4.878219 -47.252469 M 5.526656 -46.061063 L 4.878219 -45.408719 M 5.526656 -44.217313 L 4.878219 -43.568875 M 5.526656 -42.377469 L 4.878219 -41.725125 M 5.526656 -40.533719 L 4.878219 -39.881375 M 5.526656 -38.689969 L 4.878219 -38.041531 M 5.526656 -36.850125 L 4.874312 -37.502469 M 3.682906 -36.850125 L 3.030562 -37.502469 M 1.839156 -36.850125 L 1.186812 -37.502469 M -0.00459375 -36.850125 L -0.653031 -37.502469 M -1.844438 -36.850125 L -2.496781 -37.502469 M -3.688188 -36.850125 L -4.340531 -37.502469 M -5.528031 -36.854031 L -4.875688 -37.506375 M -5.528031 -38.697781 L -4.875688 -39.346219 M -5.528031 -40.537625 L -4.875688 -41.189969 M -5.528031 -42.381375 L -4.875688 -43.033719 M -5.528031 -44.225125 L -4.875688 -44.877469 M -5.528031 -46.068875 L -4.875688 -46.717313 M -5.528031 -47.908719 L -4.875688 -48.561063 M -5.528031 -49.752469 L -4.875688 -50.404813 M -5.528031 -51.596219 L -4.875688 -52.244656 M -5.528031 -53.436063 L -4.875688 -54.088406 M -5.528031 -55.279813 L -4.875688 -55.932156 M -5.528031 -57.123563 L -4.875688 -57.775906 M -5.528031 -58.967313 L -4.875688 -59.61575 M -5.528031 -60.807156 L -4.875688 -61.4595 M -5.528031 -62.650906 L -4.875688 -63.30325 M -5.528031 -64.494656 L -4.875688 -65.143094 M -5.528031 -66.3345 L -4.875688 -66.986844 M -5.528031 -68.17825 L -4.875688 -68.830594 M -5.528031 -70.022 L -4.875688 -70.674344 M -5.528031 -71.86575 L -4.875688 -72.514188 " transform="matrix(1,0,0,-1,24.321,18.978)"/>
</g>
</svg>
