<?xml version="1.0" encoding="UTF-8"?>
<svg xmlns="http://www.w3.org/2000/svg" xmlns:xlink="http://www.w3.org/1999/xlink" width="221.103pt" height="46.063pt" viewBox="0 0 221.103 46.063" version="1.1">
<defs>
<clipPath id="clip1">
  <path d="M 0 0 L 221.101562 0 L 221.101562 46.0625 L 0 46.0625 Z M 0 0 "/>
</clipPath>
</defs>
<g id="surface1">
<g clip-path="url(#clip1)" clip-rule="nonzero">
<rect x="0" y="0" width="221.103" height="46.063" style="fill:rgb(100%,100%,100%);fill-opacity:1;stroke:none;"/>
</g>
<path style="fill:none;stroke-width:1.10489;stroke-linecap:butt;stroke-linejoin:miter;stroke:rgb(29.019165%,33.724976%,34.902954%);stroke-opacity:1;stroke-miterlimit:10;" d="M 0.276062 0.00128125 L 36.572937 0.00128125 " transform="matrix(1,0,0,-1,27.638,27.638)"/>
<path style="fill:none;stroke-width:1.10489;stroke-linecap:butt;stroke-linejoin:miter;stroke:rgb(29.019165%,33.724976%,34.902954%);stroke-opacity:1;stroke-miterlimit:10;" d="M 0.00128125 3.70575 L 0.00128125 -3.704406 " transform="matrix(-1,0,0,1,27.638,27.638)"/>
<path style="fill:none;stroke-width:1.10489;stroke-linecap:butt;stroke-linejoin:miter;stroke:rgb(29.019165%,33.724976%,34.902954%);stroke-opacity:1;stroke-miterlimit:10;" d="M 0.00075125 3.704406 L 0.00075125 -3.70575 " transform="matrix(1,0,0,-1,64.48753,27.638)"/>
<path style="fill:none;stroke-width:1.10489;stroke-linecap:butt;stroke-linejoin:miter;stroke:rgb(29.019165%,33.724976%,34.902954%);stroke-opacity:1;stroke-miterlimit:10;" d="M 37.127625 0.00128125 L 73.4245 0.00128125 " transform="matrix(1,0,0,-1,27.638,27.638)"/>
<path style="fill:none;stroke-width:1.10489;stroke-linecap:butt;stroke-linejoin:miter;stroke:rgb(29.019165%,33.724976%,34.902954%);stroke-opacity:1;stroke-miterlimit:10;" d="M -0.00075125 3.70575 L -0.00075125 -3.704406 " transform="matrix(-1,0,0,1,64.48753,27.638)"/>
<path style="fill:none;stroke-width:1.10489;stroke-linecap:butt;stroke-linejoin:miter;stroke:rgb(29.019165%,33.724976%,34.902954%);stroke-opacity:1;stroke-miterlimit:10;" d="M 0.00024375 3.704406 L 0.00024375 -3.70575 " transform="matrix(1,0,0,-1,101.3396,27.638)"/>
<path style="fill:none;stroke-width:1.10489;stroke-linecap:butt;stroke-linejoin:miter;stroke:rgb(29.019165%,33.724976%,34.902954%);stroke-opacity:1;stroke-dasharray:2.98883,2.98883;stroke-miterlimit:10;" d="M 73.979187 0.00128125 L 128.701844 0.00128125 " transform="matrix(1,0,0,-1,27.638,27.638)"/>
<path style="fill:none;stroke-width:1.10489;stroke-linecap:butt;stroke-linejoin:miter;stroke:rgb(29.019165%,33.724976%,34.902954%);stroke-opacity:1;stroke-miterlimit:10;" d="M -0.00024375 3.70575 L -0.00024375 -3.704406 " transform="matrix(-1,0,0,1,101.3396,27.638)"/>
<path style="fill:none;stroke-width:1.10489;stroke-linecap:butt;stroke-linejoin:miter;stroke:rgb(29.019165%,33.724976%,34.902954%);stroke-opacity:1;stroke-miterlimit:10;" d="M -0.00188875 3.704406 L -0.00188875 -3.70575 " transform="matrix(1,0,0,-1,156.61517,27.638)"/>
<path style="fill:none;stroke-width:1.10489;stroke-linecap:butt;stroke-linejoin:miter;stroke:rgb(29.019165%,33.724976%,34.902954%);stroke-opacity:1;stroke-miterlimit:10;" d="M 129.252625 0.00128125 L 165.553406 0.00128125 " transform="matrix(1,0,0,-1,27.638,27.638)"/>
<path style="fill:none;stroke-width:1.10489;stroke-linecap:butt;stroke-linejoin:miter;stroke:rgb(29.019165%,33.724976%,34.902954%);stroke-opacity:1;stroke-miterlimit:10;" d="M 0.00188875 3.70575 L 0.00188875 -3.704406 " transform="matrix(-1,0,0,1,156.61517,27.638)"/>
<path style="fill:none;stroke-width:1.10489;stroke-linecap:butt;stroke-linejoin:miter;stroke:rgb(29.019165%,33.724976%,34.902954%);stroke-opacity:1;stroke-miterlimit:10;" d="M 0.0015 3.704406 L 0.0015 -3.70575 " transform="matrix(1,0,0,-1,193.46725,27.638)"/>
<path style="fill:none;stroke-width:0.36829;stroke-linecap:butt;stroke-linejoin:miter;stroke:rgb(29.019165%,33.724976%,34.902954%);stroke-opacity:1;stroke-miterlimit:10;" d="M -0.00128125 -8.502625 L 20.119812 -8.502625 " transform="matrix(1,0,0,-1,27.638,27.638)"/>
<path style="fill-rule:nonzero;fill:rgb(29.019165%,33.724976%,34.902954%);fill-opacity:1;stroke-width:0.36829;stroke-linecap:butt;stroke-linejoin:miter;stroke:rgb(29.019165%,33.724976%,34.902954%);stroke-opacity:1;stroke-miterlimit:10;" d="M 6.370793 0.001405 L 0.55048 1.708436 L 0.55048 -1.705626 Z M 6.370793 0.001405 " transform="matrix(1,0,0,-1,47.48077,36.14203)"/>
</g>
</svg>
